#!OML:ASF F:\VICON\USERDATA\INSTALL\Justin_Nancy\Justin_Nancy.ASF
:FULLY-SPECIFIED
:DEGREES
240
root 12.8619 17.4596 9.04217 249.791 83.6434 249.989
lowerback 8.11818 1.09517 2.6818
upperback 0.726133 1.91576 3.37931
thorax -3.83193 0.96633 1.77846
lowerneck -16.6869 -4.84163 -10.6599
upperneck 21.9216 -5.43252 7.25596
head 10.2637 -2.48859 3.61543
rclavicle 1.59028e-015 1.86858e-014
rhumerus -30.9764 -7.81294 -77.4316
rradius 32.2936
rwrist 4.20795
rhand -17.8638 11.4015
rfingers 7.12502
rthumb 8.4018 -18.4114
lclavicle 1.59028e-015 1.86858e-014
lhumerus -31.8581 3.8996 88.359
lradius 30.5899
lwrist 1.24884
lhand -18.1919 26.746
lfingers 7.12502
lthumb 8.08508 56.5713
rfemur -6.4527 7.90274 28.5602
rtibia 24.8651
rfoot -13.315 -6.98266
rtoes 3.1222
lfemur -27.8272 2.62436 -16.6742
ltibia 69.5711
lfoot -5.31758 -2.7998
ltoes -7.0563
241
root 13.064 17.427 9.08399 250.739 83.692 251.028
lowerback 8.227 1.18249 2.67051
upperback 0.764873 2.03383 3.356
thorax -3.85357 1.02484 1.74529
lowerneck -16.5992 -4.87262 -10.344
upperneck 21.689 -5.46849 6.8552
head 10.1453 -2.52728 3.40864
rclavicle -1.78658e-014 -4.49253e-014
rhumerus -30.7558 -6.53952 -77.859
rradius 33.0964
rwrist 2.85862
rhand -18.4868 10.7194
rfingers 7.12502
rthumb 7.80046 -19.1167
lclavicle -1.78658e-014 -4.49253e-014
lhumerus -31.9873 4.20832 88.0556
lradius 30.6407
lwrist 1.2903
lhand -17.6818 26.4042
lfingers 7.12502
lthumb 8.57739 56.21
rfemur -5.77961 8.07523 28.9403
rtibia 25.273
rfoot -13.973 -7.33922
rtoes 3.45264
lfemur -28.9569 3.35627 -16.9
ltibia 68.6571
lfoot -6.69516 -2.15154
ltoes -7.86756
242
root 13.2602 17.395 9.11911 251.987 83.7654 252.284
lowerback 8.41566 1.24837 2.6653
upperback 0.745138 2.12943 3.3272
thorax -3.97995 1.0707 1.70303
lowerneck -16.8941 -4.87238 -10.3257
upperneck 21.9422 -5.43934 6.81077
head 10.2876 -2.51253 3.39483
rclavicle 1.23743e-014 -2.0276e-014
rhumerus -30.6276 -4.83828 -78.4247
rradius 34.0723
rwrist 1.02723
rhand -19.3556 10.2318
rfingers 7.12502
rthumb 6.96191 -19.6337
lclavicle 1.23743e-014 -2.0276e-014
lhumerus -32.0584 4.57229 87.866
lradius 30.575
lwrist 1.52963
lhand -16.9434 26.4818
lfingers 7.12502
lthumb 9.29 56.2571
rfemur -5.14159 8.09118 29.2593
rtibia 25.5014
rfoot -14.4982 -7.26168
rtoes 3.2578
lfemur -30.0801 3.80595 -17.1969
ltibia 67.5201
lfoot -7.79577 -1.83468
ltoes -6.87597
243
root 13.452 17.3594 9.14369 257.328 82.8973 257.466
lowerback 8.47638 1.23124 3.85994
upperback 0.654826 2.24587 3.5097
thorax -4.07302 1.11227 1.20813
lowerneck -17.2244 -4.83308 -10.4728
upperneck 22.3498 -5.37069 7.01791
head 10.502 -2.46318 3.50933
rclavicle 1.9133e-015 -1.55052e-014
rhumerus -29.7875 -6.15401 -78.2772
rradius 33.659
rwrist 2.52216
rhand -18.5661 11.2947
rfingers 7.12502
rthumb 7.72401 -18.5442
lclavicle 1.9133e-015 -1.55052e-014
lhumerus -32.2264 4.41113 87.7819
lradius 30.5698
lwrist 1.88661
lhand -17.0314 26.9311
lfingers 7.12502
lthumb 9.20501 56.7102
rfemur -4.75574 8.31053 30.6112
rtibia 25.8095
rfoot -15.1521 -7.08933
rtoes 4.25393
lfemur -31.4183 4.51297 -16.3736
ltibia 66.2005
lfoot -8.69748 -0.906188
ltoes -9.38812
244
root 13.6521 17.3308 9.16192 259.96 82.6044 260.101
lowerback 8.57037 1.19908 4.42491
upperback 0.673879 2.27092 3.57328
thorax -4.08749 1.11747 0.953753
lowerneck -17.2319 -4.81437 -10.748
upperneck 22.2088 -5.29053 7.12146
head 10.456 -2.43922 3.60197
rclavicle 8.44835e-016 -3.69739e-014
rhumerus -28.8678 -7.58369 -77.8856
rradius 33.1627
rwrist 4.57489
rhand -16.9978 12.7077
rfingers 7.12502
rthumb 9.23747 -17.07
lclavicle 8.44835e-016 -3.69739e-014
lhumerus -32.3984 5.07872 87.4446
lradius 30.5936
lwrist 1.67013
lhand -17.3752 26.7608
lfingers 7.12502
lthumb 8.87326 56.5543
rfemur -3.9994 8.59493 31.2505
rtibia 25.9168
rfoot -15.8759 -7.47794
rtoes 4.28212
lfemur -32.333 5.05251 -16.3582
ltibia 64.548
lfoot -9.28853 0.66729
ltoes -13.5315
245
root 13.8594 17.3097 9.19262 248.789 83.9986 249.386
lowerback 9.0318 0.982041 2.98054
upperback 0.831313 1.81417 2.98663
thorax -4.2098 0.902394 1.19835
lowerneck -16.9256 -4.7778 -10.4829
upperneck 21.6711 -5.28813 6.93085
head 10.1891 -2.44418 3.48114
rclavicle -8.17502e-015 -1.94809e-014
rhumerus -28.3349 -7.98654 -78.0557
rradius 33.3336
rwrist 5.09299
rhand -16.5508 13.2712
rfingers 7.12502
rthumb 9.66875 -16.4869
lclavicle -8.17502e-015 -1.94809e-014
lhumerus -32.5195 5.21353 86.9797
lradius 30.6317
lwrist 1.59413
lhand -17.3152 26.6449
lfingers 7.12502
lthumb 8.93124 56.4358
rfemur -2.5051 7.91154 29.7996
rtibia 25.6464
rfoot -16.56 -8.2507
rtoes 4.30343
lfemur -32.5009 4.581 -18.5857
ltibia 62.5271
lfoot -9.70106 1.08429
ltoes -11.0542
246
root 14.0677 17.2728 9.20902 249.544 83.2415 250.39
lowerback 9.28721 0.880675 4.18619
upperback 0.895657 1.82213 2.97857
thorax -4.24922 0.888328 0.509603
lowerneck -16.5466 -4.7696 -9.93286
upperneck 21.0922 -5.39673 6.69665
head 9.89652 -2.4831 3.28388
rclavicle -1.87603e-014 -1.78906e-014
rhumerus -27.9612 -8.42461 -78.3277
rradius 33.6497
rwrist 5.29511
rhand -17.1585 12.9975
rfingers 7.12502
rthumb 9.08244 -16.787
lclavicle -1.87603e-014 -1.78906e-014
lhumerus -32.6754 5.09943 86.7251
lradius 30.6066
lwrist 1.20396
lhand -17.7355 26.776
lfingers 7.12502
lthumb 8.52556 56.5839
rfemur -1.44589 7.28152 30.8568
rtibia 25.6098
rfoot -17.1612 -8.69134
rtoes 3.41256
lfemur -33.0413 5.23859 -18.1299
ltibia 60.4416
lfoot -10.1413 0.665262
ltoes -8.45456
247
root 14.275 17.2333 9.25569 255.638 81.3292 256.372
lowerback 9.14845 0.797414 5.97573
upperback 0.883085 1.94994 3.68316
thorax -4.1527 0.941993 0.231677
lowerneck -17.7916 -4.29944 -12.4641
upperneck 22.6714 -4.45919 8.86216
head 10.7314 -1.99367 4.67043
rclavicle -3.8266e-015 3.26007e-014
rhumerus -27.4108 -7.81546 -78.5429
rradius 34.0457
rwrist 4.53317
rhand -18.0443 12.2453
rfingers 7.12502
rthumb 8.22758 -17.5745
lclavicle -3.8266e-015 3.26007e-014
lhumerus -32.8109 5.81972 86.6509
lradius 30.5258
lwrist 0.480976
lhand -17.2737 26.5056
lfingers 7.12502
lthumb 8.97124 56.2948
rfemur -0.769651 7.1851 33.4224
rtibia 25.526
rfoot -17.6275 -9.27163
rtoes 1.97785
lfemur -34.0253 6.3757 -16.038
ltibia 58.2541
lfoot -10.5547 0.432746
ltoes -5.68749
248
root 14.4777 17.2431 9.27551 257.593 83.4745 257.855
lowerback 8.8699 1.18116 3.7117
upperback 0.811587 2.17056 3.3263
thorax -4.12789 1.07479 1.10158
lowerneck -17.3571 -4.51307 -11.3538
upperneck 21.9116 -4.76457 7.46814
head 10.3438 -2.20866 3.90056
rclavicle -7.10655e-015 4.77083e-015
rhumerus -26.9573 -6.94103 -78.5061
rradius 34.6431
rwrist 3.48724
rhand -17.8599 11.8999
rfingers 7.12502
rthumb 8.4055 -17.9128
lclavicle -7.10655e-015 4.77083e-015
lhumerus -32.8999 6.44427 86.7709
lradius 30.4301
lwrist 0.202571
lhand -16.5912 26.2721
lfingers 7.12502
lthumb 9.62982 56.032
rfemur -0.162055 8.10689 31.4854
rtibia 24.9453
rfoot -17.5794 -9.92841
rtoes 1.15698
lfemur -34.6308 6.56505 -18.5596
ltibia 55.4539
lfoot -11.15 1.40661
ltoes 0.724449
